# xmcd
#
# Track frame offsets: 
#        150
#        14308
#        29819
#        50529
#        67319
#        91676
#        115829
#        138065
#        154782
#        174867
#        190240
#        204413
#        215829
#        233582
#        248817
#
# Disc length: 3712 seconds
#
# Revision: 0
# Processed by: cddbd v1.5.2PL0 Copyright (c) Steve Scherf et al.
# Submitted via: ExactAudioCopyFreeDBPlugin 1.0
#
DISCID=cc0e7e0f
DTITLE=Various Artist - Women'n Blues
DYEAR=1900
DGENRE=Blues
TTITLE0=Margret RoadKnight - Nothing Special
TTITLE1=Margret RoadKnight - Amazing Grace
TTITLE2=Margret RoadKnight - Ain't Afraid Of No Men
TTITLE3=Sally King - Salty Papa Blues
TTITLE4=Sally King - Sin City
TTITLE5=Sally King - It Ain't Fair
TTITLE6=Wendy Saddington - Live The Life
TTITLE7=Wendy Saddington - Prisoner Of Love
TTITLE8=Wendy Saddington - Down So Long
TTITLE9=Kate Dunbar - I Hate A Man Like You
TTITLE10=Kate Dunbar - Women Be Wise
TTITLE11=Kate Dunbar - It's A Boogie
TTITLE12=Jeannie Lewis - Young Birds
TTITLE13=Jeannie Lewis - Lazybones "Survial's A Song"
TTITLE14=Jeannie Lewis - Boat Of Dreams
EXTD=
EXTT0=
EXTT1=
EXTT2=
EXTT3=
EXTT4=
EXTT5=
EXTT6=
EXTT7=
EXTT8=
EXTT9=
EXTT10=
EXTT11=
EXTT12=
EXTT13=
EXTT14=
PLAYORDER=
